<svg xmlns="http://www.w3.org/2000/svg" viewBox="0 0 126.46 97.01"><defs><style>.cls-1,.cls-2{fill:#fff;}.cls-2{stroke:#e2c174;stroke-miterlimit:10;stroke-opacity:0;stroke-width:6px;}</style></defs><title>Asset 7</title><g id="Layer_2" data-name="Layer 2"><g id="Layer_1-2" data-name="Layer 1"><path class="cls-1" d="M82.84,13.21,71.1,0H24.38L14.11,13.21H0L3.56,97H122.4l4.06-83.8ZM47.07,4.4a3,3,0,1,1-3,3A3,3,0,0,1,47.07,4.4Zm-9,0a3,3,0,1,1-3,3A3,3,0,0,1,38.07,4.4Zm-9,0a3,3,0,1,1-3,3A3,3,0,0,1,29.07,4.4ZM56.14,86.13H15.44l-.52-22.95H56.14Zm0-35.09H14.44l-.52-26.95H56.14ZM109,86.13H69.31V63.18h40.22ZM111,51H69.31V24.09h42.22Z"/><polygon class="cls-2" points="107 48.04 75.31 48.04 75.31 29.09 107.53 29.09 107 48.04"/><polygon class="cls-2" points="106 83.13 75.31 83.13 75.31 68.18 106.53 68.18 106 83.13"/><polygon class="cls-2" points="52.07 47.98 20.31 47.98 19.92 29.09 52.07 29.09 52.07 47.98"/><polygon class="cls-2" points="52.14 83.13 21.44 83.13 20.92 68.18 52.14 68.18 52.14 83.13"/></g></g></svg>